<?xml version="1.0" encoding="UTF-8" standalone="no"?>
<svg
   height="171.45764"
   viewBox="11.767295 -46.723959 62.122787 65.557521"
   width="668.73737"
   version="1.1"
   id="svg227"
   sodipodi:docname="logo-bnp-paribas.svg"
   inkscape:version="1.2.2 (b0a84865, 2022-12-01)"
   xmlns:inkscape="http://www.inkscape.org/namespaces/inkscape"
   xmlns:sodipodi="http://sodipodi.sourceforge.net/DTD/sodipodi-0.dtd"
   xmlns:xlink="http://www.w3.org/1999/xlink"
   xmlns="http://www.w3.org/2000/svg"
   xmlns:svg="http://www.w3.org/2000/svg">
  <defs
     id="defs231" />
  <sodipodi:namedview
     id="namedview229"
     pagecolor="#ffffff"
     bordercolor="#cccccc"
     borderopacity="1"
     inkscape:showpageshadow="0"
     inkscape:pageopacity="1"
     inkscape:pagecheckerboard="0"
     inkscape:deskcolor="#d1d1d1"
     showgrid="false"
     inkscape:zoom="0.41992883"
     inkscape:cx="759.65254"
     inkscape:cy="415.54661"
     inkscape:window-width="1728"
     inkscape:window-height="981"
     inkscape:window-x="0"
     inkscape:window-y="38"
     inkscape:window-maximized="1"
     inkscape:current-layer="g225" />
  <linearGradient
     id="a"
     gradientTransform="matrix(0,-44.88966,-44.88966,0,-1251.2008,134.91434)"
     gradientUnits="userSpaceOnUse"
     x2="1">
    <stop
       offset="0"
       stop-color="#007348"
       id="stop182" />
    <stop
       offset=".6"
       stop-color="#8dc9ab"
       id="stop184" />
    <stop
       offset="1"
       stop-color="#00925b"
       id="stop186" />
  </linearGradient>
  <linearGradient
     id="b"
     gradientTransform="matrix(0,-50.44363,-50.44363,0,-1251.2678,144.43234)"
     gradientUnits="userSpaceOnUse"
     x2="1">
    <stop
       offset="0"
       stop-color="#00925b"
       id="stop189" />
    <stop
       offset=".3"
       stop-color="#8dc9ab"
       id="stop191" />
    <stop
       offset=".55"
       stop-color="#00925b"
       id="stop193" />
    <stop
       offset=".835"
       stop-color="#007348"
       id="stop195" />
    <stop
       offset="1"
       stop-color="#009c6d"
       id="stop197" />
  </linearGradient>
  <linearGradient
     id="c">
    <stop
       offset="0"
       stop-color="#00a678"
       id="stop200" />
    <stop
       offset="1"
       stop-color="#00925b"
       id="stop202" />
  </linearGradient>
  <linearGradient
     id="d"
     gradientTransform="matrix(0,32.643,32.643,0,-1243.1878,96.774345)"
     gradientUnits="userSpaceOnUse"
     x2="1"
     xlink:href="#c" />
  <linearGradient
     id="e"
     gradientTransform="matrix(0,32.65286,32.65286,0,-1263.4408,96.772345)"
     gradientUnits="userSpaceOnUse"
     x2="1"
     xlink:href="#c" />
  <linearGradient
     id="f"
     gradientTransform="matrix(0,32.6314,32.6314,0,-1257.1318,96.779345)"
     gradientUnits="userSpaceOnUse"
     x2="1"
     xlink:href="#c" />
  <linearGradient
     id="g"
     gradientTransform="matrix(0,32.64264,32.64264,0,-1251.6778,96.775345)"
     gradientUnits="userSpaceOnUse"
     x2="1"
     xlink:href="#c" />
  <g
     transform="matrix(1.25,0,0,-1.25,1514.3068,128.17251)"
     id="g225">
    <path
       d="M -1272.4628,92.052345 H -1229.9388 V 133.86934 H -1272.4628 Z"
       fill="url(#a)"
       id="path209"
       style="fill:url(#a)" />
    <path
       d="M -1269.1408,133.12034 C -1269.9658,133.12034 -1270.5048,132.42434 -1270.6328,131.44834 C -1270.7608,130.47234 -1271.6948,125.86634 -1271.6948,114.01334 C -1271.6948,102.15434 -1270.6328,94.395345 -1270.6328,94.395345 C -1270.5348,93.457345 -1269.9658,92.724345 -1269.1408,92.724345 H -1232.3338 C -1231.5118,92.724345 -1230.8578,93.376345 -1230.8438,94.395345 C -1230.8298,95.414345 -1231.2528,103.48334 -1231.2528,112.35934 C -1231.2528,121.23634 -1230.8438,131.44834 -1230.8438,131.44834 C -1230.8238,132.35634 -1231.5118,133.12034 -1232.3338,133.12034 Z"
       fill="url(#b)"
       id="path211"
       style="fill:url(#b)" />
    <path
       d="M -1248.4698,128.85434 C -1247.3088,128.36734 -1242.6428,125.84434 -1242.0708,125.03834 C -1244.4188,124.72834 -1249.0238,123.52934 -1251.5038,122.32234 L -1251.6488,122.03034 C -1248.9138,122.63234 -1245.0908,122.94734 -1242.4548,123.09034 C -1243.4388,121.64634 -1244.0908,120.95834 -1245.5878,119.32434 L -1245.7268,119.00734 C -1242.8738,120.72134 -1242.0708,120.84434 -1239.4408,122.38434 C -1238.4478,120.91534 -1238.2088,117.53034 -1238.1708,114.84734 C -1237.3148,116.54934 -1236.2758,122.96134 -1236.7078,124.12034 C -1234.9638,125.31734 -1234.7278,126.28134 -1234.7278,126.28134 C -1236.3268,126.14334 -1237.2088,126.11634 -1238.0708,125.84434 C -1240.1138,127.09734 -1244.7988,128.75034 -1248.3348,129.15034 Z"
       fill="url(#d)"
       id="path213"
       style="fill:url(#d)" />
    <path
       d="M -1265.8898,108.92834 C -1266.1208,106.79234 -1266.2138,105.26434 -1265.9078,103.55534 C -1266.7728,103.31634 -1267.5308,103.28234 -1268.2278,102.98534 L -1268.3608,102.69234 C -1267.2518,102.00834 -1266.3488,101.48434 -1265.0948,100.89934 C -1264.4238,99.458343 -1263.7308,98.486345 -1262.6068,97.376345 L -1262.4698,97.673345 C -1262.6718,98.492345 -1262.9338,99.169345 -1262.8348,100.06434 C -1261.4408,99.658343 -1260.2448,99.443343 -1258.6558,99.395343 L -1258.5218,99.692343 C -1259.9188,100.23434 -1261.3148,100.66134 -1262.4448,101.72734 C -1262.0898,102.71534 -1261.6828,103.49034 -1261.0188,104.47034 L -1260.8788,104.77034 C -1262.0788,104.58934 -1263.1668,104.15034 -1264.2048,103.94834 C -1265.0228,105.38634 -1265.3408,107.35334 -1265.7528,109.22734 Z"
       fill="url(#e)"
       id="path215"
       style="fill:url(#e)" />
    <path
       d="M -1258.7698,118.67734 C -1258.7698,118.67734 -1259.6678,118.76334 -1261.1538,118.71834 C -1262.4098,118.66034 -1264.2828,118.54834 -1265.1938,118.28034 L -1265.3268,117.98834 C -1263.8788,117.92634 -1261.8948,117.53734 -1261.1358,116.77534 C -1260.3768,116.01334 -1263.3338,114.79234 -1265.5128,110.45234 C -1267.6918,106.11234 -1261.5628,114.15834 -1259.8508,115.07734 C -1258.1388,115.99634 -1258.9548,112.09334 -1258.3328,110.59934 L -1258.1958,110.89734 C -1258.0238,111.85734 -1257.5948,114.46134 -1256.8668,116.05434 C -1256.1388,117.64734 -1256.6088,116.21134 -1255.3458,116.33434 C -1254.0798,116.44734 -1252.2898,116.51434 -1248.8908,115.91734 L -1248.7528,116.20934 C -1249.5288,116.66734 -1252.6218,117.99334 -1255.8958,118.43434 H -1255.7888 C -1255.3398,119.75634 -1254.7778,120.75334 -1254.7778,120.75334 C -1255.4718,120.65534 -1257.4478,119.73134 -1258.7698,118.67734"
       fill="url(#f)"
       id="path217"
       style="fill:url(#f)" />
    <path
       d="M -1250.4958,100.36834 A 40.07,40.07 0 0 0 -1250.6108,102.09234 A 32.87,32.87 0 0 0 -1252.6428,99.576343 C -1253.4438,99.353343 -1254.3598,99.362343 -1255.1948,99.371343 A 22.6,22.6 0 0 1 -1256.1368,99.369343 L -1256.2718,99.072345 C -1255.4948,98.672345 -1254.7318,98.426345 -1253.9178,98.259345 C -1254.5778,97.658345 -1255.4598,97.201345 -1256.0798,96.782345 L -1256.2158,96.490345 C -1254.8878,96.804345 -1253.1388,97.368345 -1251.8358,98.137345 C -1251.1578,98.107345 -1250.5248,98.152345 -1250.0598,98.244345 C -1249.5948,98.336345 -1249.9208,98.547345 -1249.9208,98.540345 C -1250.0058,98.840345 -1250.2728,99.023345 -1250.3508,99.443343 C -1249.1298,100.39134 -1248.2448,101.25534 -1247.2238,102.28234 L -1247.0818,102.58034 C -1248.0908,101.88434 -1249.3158,100.92734 -1250.4958,100.36834"
       fill="url(#g)"
       id="path219"
       style="fill:url(#g)" />
    <path
       d="M -1239.3058,122.68434 C -1241.9298,121.14134 -1242.7338,121.01134 -1245.5878,119.30334 C -1243.9258,121.10634 -1243.3478,121.87434 -1242.3198,123.38334 C -1244.9508,123.24334 -1248.7738,122.92734 -1251.5038,122.32234 C -1249.1278,123.59134 -1244.4168,125.00234 -1241.9298,125.33834 C -1242.5068,126.13434 -1247.1738,128.66234 -1248.3348,129.14934 C -1244.6398,128.86234 -1240.1238,127.48134 -1237.9338,126.14234 C -1237.0728,126.41134 -1236.1768,126.42434 -1234.5738,126.56734 C -1234.9818,125.86634 -1234.9998,125.46034 -1236.5728,124.41734 C -1236.1368,123.25234 -1237.1778,116.84334 -1238.0378,115.14634 C -1238.0688,117.82734 -1238.3028,121.21334 -1239.3058,122.68434 M -1258.5218,99.692343 C -1260.0298,100.25134 -1261.1158,100.90234 -1262.3118,102.02034 C -1261.9538,103.00834 -1261.5448,103.78034 -1260.8788,104.77034 A 78.468,78.468 0 0 1 -1264.0648,104.24934 C -1264.9248,105.75334 -1265.3148,107.20634 -1265.7528,109.22734 C -1265.9868,107.08534 -1266.0758,105.55534 -1265.7738,103.85034 C -1266.7438,103.58034 -1267.4298,103.34534 -1268.2278,102.98634 C -1267.1098,102.30234 -1266.2078,101.77534 -1264.9588,101.19334 C -1264.2888,99.753343 -1263.5948,98.782345 -1262.4688,97.673345 C -1262.7328,98.618345 -1262.8028,99.369343 -1262.6948,100.36034 C -1261.2998,99.954343 -1260.1058,99.740343 -1258.5218,99.692343 M -1254.5958,121.00734 C -1255.0658,120.39734 -1255.6108,119.26134 -1255.7578,118.73334 C -1251.8708,118.20534 -1248.7518,116.20934 -1248.7518,116.20934 C -1252.1518,116.81234 -1253.9418,116.73734 -1255.2098,116.62334 C -1256.4698,116.50534 -1256.7298,116.35734 -1256.7298,116.35734 C -1257.6458,114.34734 -1258.1958,110.89734 -1258.1958,110.89734 C -1258.8138,112.38834 -1259.7078,115.37434 -1259.7078,115.37434 C -1261.4228,114.45834 -1265.3678,110.74734 -1265.3678,110.74734 C -1263.1988,115.09034 -1260.9978,117.06734 -1260.9978,117.06734 C -1261.7548,117.83434 -1263.7408,118.21734 -1265.1938,118.28134 C -1264.4398,118.58934 -1262.5048,118.94934 -1261.0188,119.01734 C -1259.5308,119.06034 -1258.6308,118.97534 -1258.6308,118.97534 C -1257.3038,120.02334 -1255.2908,120.90534 -1254.5958,121.00834 M -1250.4728,102.38534 A 32.128,32.128 0 0 0 -1252.5098,99.872343 A 12.514,12.514 0 0 0 -1256.1368,99.369343 A 9.017,9.017 0 0 1 -1253.7788,98.552345 A 16.44,16.44 0 0 0 -1256.0788,96.782345 C -1254.7498,97.097345 -1253.0028,97.661345 -1251.7018,98.430345 C -1251.0218,98.404345 -1250.3868,98.448345 -1249.9218,98.540345 C -1250.0428,98.934345 -1250.1168,99.228345 -1250.2158,99.740343 C -1248.9908,100.68934 -1248.1018,101.54834 -1247.0818,102.58034 A 21.112,21.112 0 0 0 -1250.3588,100.66534 A 33.166,33.166 0 0 0 -1250.4728,102.38534"
       fill="#ffffff"
       id="path221" />
    <path
       d="M -1214.4268,117.84134 C -1211.8238,117.81934 -1210.8708,117.29034 -1210.8708,115.87334 C -1210.8708,115.48234 -1210.9908,115.13534 -1211.2208,114.87034 C -1211.7198,114.27034 -1212.6908,113.96034 -1213.9288,114.03834 H -1213.9928 L -1214.7198,112.14434 H -1213.9928 C -1212.5558,112.18434 -1211.3068,111.73234 -1210.6648,110.94834 C -1210.3688,110.59134 -1210.2198,110.16134 -1210.2198,109.72334 C -1210.2198,108.24134 -1211.5248,107.47634 -1214.0988,107.47634 C -1214.5318,107.47634 -1215.2368,107.47634 -1215.6748,107.49034 A 189.78,189.78 0 0 0 -1215.7818,112.95034 C -1215.7818,113.88434 -1215.7208,115.96434 -1215.6748,117.74034 C -1215.3778,117.80234 -1214.8848,117.84034 -1214.4268,117.84034 M -1219.2468,119.20334 C -1219.1668,117.79834 -1219.0858,114.24634 -1219.0858,112.95134 C -1219.0858,111.75734 -1219.0858,107.76134 -1219.2958,106.03834 L -1219.3088,105.90334 H -1213.0658 C -1209.9958,105.90334 -1206.7518,106.85734 -1206.7518,109.58334 C -1206.7518,111.28834 -1207.9868,112.54934 -1210.2968,113.23934 C -1208.5828,113.69934 -1207.4418,114.86934 -1207.4418,116.20934 C -1207.4418,118.43434 -1209.9968,119.27134 -1212.3988,119.32934 H -1219.2838 Z M -1192.3428,119.32934 H -1195.3808 L -1195.2578,115.94334 C -1195.1978,114.27034 -1195.1418,112.54934 -1195.0238,110.87834 C -1195.2198,111.40234 -1195.4028,111.67134 -1196.3268,113.01534 C -1196.3298,113.06234 -1199.4868,117.91934 -1200.5838,119.29834 L -1200.6138,119.32934 H -1204.1398 V 119.20334 C -1204.0278,117.79834 -1203.9828,114.24534 -1203.9828,112.95034 C -1203.9828,111.75634 -1203.9828,107.76134 -1204.1508,106.03834 L -1204.1808,105.90234 H -1201.0398 V 106.03834 C -1201.2188,109.31534 -1201.2188,112.62234 -1201.2188,115.83034 C -1201.1088,115.44134 -1200.9708,115.10734 -1200.4758,114.37434 C -1200.4348,114.28734 -1195.0238,106.41034 -1194.7608,105.95934 L -1194.7338,105.90234 H -1192.2168 L -1192.2208,106.03834 C -1192.4128,107.76134 -1192.4288,111.75634 -1192.4288,112.95034 C -1192.4288,114.24534 -1192.3428,117.79834 -1192.2608,119.20334 L -1192.2208,119.32934 Z M -1184.1028,117.70934 C -1182.3528,117.74134 -1181.1298,117.38734 -1180.5488,116.65234 C -1180.2828,116.33634 -1180.1358,115.91934 -1180.1358,115.44134 C -1180.1358,113.49834 -1182.3218,113.07634 -1184.1488,113.07634 L -1184.8908,113.11834 L -1185.1958,113.14834 C -1185.2088,113.59834 -1185.2088,114.19034 -1185.2088,114.85434 C -1185.2088,115.69934 -1185.2088,116.70234 -1185.1698,117.63134 A 8.25,8.25 0 0 0 -1184.1028,117.70934 M -1188.7098,119.20334 C -1188.5868,117.79834 -1188.5398,114.24634 -1188.5398,112.95034 C -1188.5398,111.75734 -1188.5398,107.76034 -1188.7238,106.03834 V 105.90234 H -1184.9868 L -1185.0028,106.03834 C -1185.1308,107.27834 -1185.1958,109.64234 -1185.2088,111.44834 L -1184.5028,111.41334 L -1183.9748,111.40234 C -1179.0588,111.40234 -1176.6678,112.70234 -1176.6678,115.44134 C -1176.6678,118.55634 -1180.0218,119.27134 -1182.8178,119.32934 H -1188.7098 Z M -1164.9338,117.70934 C -1163.1788,117.74134 -1161.9578,117.38734 -1161.3698,116.65234 C -1161.0998,116.33634 -1160.9648,115.91934 -1160.9648,115.44134 C -1160.9648,113.49834 -1163.1478,113.07634 -1164.9518,113.07634 L -1165.6918,113.11834 C -1165.6918,113.11834 -1165.8878,113.13534 -1166.0018,113.14834 C -1166.0218,113.59834 -1166.0218,114.19334 -1166.0218,114.85434 C -1166.0218,115.70734 -1166.0218,116.70234 -1165.9878,117.63134 C -1165.7538,117.66534 -1165.3498,117.70934 -1164.9338,117.70934 M -1169.5338,119.20334 C -1169.4158,117.79834 -1169.3478,114.24634 -1169.3478,112.95034 C -1169.3478,111.75734 -1169.3598,107.76034 -1169.5538,106.03834 V 105.90234 H -1165.8138 L -1165.8358,106.03834 C -1165.9548,107.27834 -1166.0228,109.64234 -1166.0228,111.44834 C -1165.8488,111.44034 -1165.3498,111.41334 -1165.3498,111.41334 L -1164.8078,111.40234 C -1159.8938,111.40234 -1157.4818,112.70234 -1157.4818,115.44134 C -1157.4818,118.55634 -1160.8548,119.27134 -1163.6618,119.32934 H -1169.5338 Z M -1151.5738,115.37534 C -1151.2768,114.73534 -1150.5048,112.95034 -1149.6368,110.82034 C -1149.7708,110.81434 -1149.9388,110.81434 -1149.9388,110.81434 L -1151.5738,110.79234 C -1151.5738,110.79234 -1153.2658,110.81434 -1153.5488,110.82034 C -1152.8428,112.52334 -1152.1438,114.06234 -1151.5738,115.37534 M -1152.4828,119.32934 H -1152.5318 L -1152.5578,119.26234 C -1153.2538,117.35134 -1157.7368,107.56834 -1158.4468,106.07034 L -1158.5058,105.90234 H -1155.3228 L -1155.2958,105.97634 C -1155.0158,106.89734 -1154.6388,107.93534 -1154.2288,109.04334 C -1154.1018,109.04334 -1151.5738,109.08134 -1151.5738,109.08134 L -1149.3748,109.06534 C -1149.3748,109.06534 -1149.0208,109.04334 -1148.9148,109.04334 C -1148.3488,107.60034 -1147.9138,106.51234 -1147.7248,105.95934 L -1147.6888,105.90234 H -1143.9998 L -1149.9588,119.32934 H -1150.0328 Z M -1142.5008,119.20334 C -1142.3938,117.79834 -1142.3398,114.24534 -1142.3398,112.95034 C -1142.3398,111.75634 -1142.3398,107.76134 -1142.5438,106.03834 V 105.90234 H -1138.7838 L -1138.7998,106.03834 C -1138.9988,107.77334 -1139.0128,111.75634 -1139.0128,112.95034 C -1139.0128,113.88334 -1138.9828,115.96334 -1138.8908,117.64534 C -1138.6048,117.66534 -1138.1708,117.70934 -1137.8768,117.70934 C -1136.1368,117.74134 -1134.9068,117.38234 -1134.3328,116.65234 C -1134.0568,116.33534 -1133.9328,115.90934 -1133.9328,115.44234 C -1133.9328,113.89034 -1135.3798,113.10434 -1136.7288,113.03434 C -1137.1808,113.01534 -1137.5168,113.07434 -1137.5168,113.07434 L -1137.7788,113.11834 L -1137.6348,112.87234 C -1136.2998,110.92534 -1134.3038,107.55434 -1133.4788,105.95934 L -1133.4558,105.90234 H -1129.4388 L -1129.5388,106.08334 C -1129.7028,106.30934 -1132.3188,110.16034 -1133.4308,111.80534 C -1133.4308,111.80534 -1133.4788,111.85234 -1133.5278,111.90534 C -1131.4678,112.52334 -1130.4728,113.67534 -1130.4728,115.44134 C -1130.4728,118.53334 -1133.8268,119.26934 -1136.6588,119.32934 H -1142.5118 Z M -1124.1228,119.32934 H -1127.7028 L -1127.6828,119.20334 C -1127.5908,117.79834 -1127.5188,114.24534 -1127.5188,112.95034 C -1127.5188,111.76234 -1127.5348,107.77334 -1127.7038,106.03834 L -1127.7178,105.90234 H -1124.0058 L -1124.0248,106.03834 C -1124.1678,107.77334 -1124.2118,111.76234 -1124.2118,112.95034 C -1124.2118,114.24534 -1124.1218,117.79834 -1124.0248,119.20334 V 119.32934 Z M -1115.8028,117.84134 C -1113.1808,117.81934 -1112.2268,117.29034 -1112.2268,115.87334 C -1112.2268,115.48234 -1112.3468,115.13534 -1112.5858,114.87034 C -1113.0588,114.27034 -1114.0678,113.96034 -1115.2978,114.03834 H -1115.3578 L -1116.0808,112.14434 H -1115.3588 C -1113.9168,112.18434 -1112.6788,111.73234 -1112.0378,110.94834 C -1111.7248,110.59134 -1111.5758,110.16134 -1111.5758,109.72334 C -1111.5758,108.24134 -1112.8858,107.47634 -1115.4748,107.47634 C -1115.8898,107.47634 -1116.5898,107.47634 -1117.0278,107.49034 C -1117.1348,109.46834 -1117.1348,112.14434 -1117.1348,112.95034 C -1117.1348,113.88434 -1117.1018,115.96434 -1117.0278,117.74034 C -1116.7448,117.80234 -1116.2538,117.84034 -1115.8028,117.84034 M -1120.6218,119.20334 C -1120.5148,117.79834 -1120.4498,114.24634 -1120.4498,112.95134 C -1120.4498,111.75734 -1120.4498,107.76134 -1120.6378,106.03834 L -1120.6678,105.90334 H -1114.4148 C -1111.3578,105.90334 -1108.1018,106.85734 -1108.1018,109.58334 C -1108.1018,111.28834 -1109.3398,112.54934 -1111.6698,113.23934 C -1109.9528,113.69934 -1108.7978,114.86934 -1108.7978,116.20934 C -1108.7978,118.43434 -1111.3578,119.27134 -1113.7378,119.32934 H -1120.6378 Z M -1100.4528,115.38234 C -1100.1528,114.75734 -1099.3858,112.96934 -1098.5168,110.83434 C -1098.6488,110.83434 -1098.8108,110.82034 -1098.8108,110.82034 L -1100.4528,110.79834 C -1100.4528,110.79834 -1102.1648,110.83434 -1102.4188,110.83434 A 126.435,126.435 0 0 0 -1100.4528,115.38234 M -1098.9078,119.32934 H -1101.4218 L -1101.4368,119.26934 C -1102.1878,117.23634 -1106.9238,106.93734 -1107.3218,106.08334 L -1107.3918,105.90334 H -1104.1918 L -1104.1718,105.98334 C -1103.9048,106.90334 -1103.5328,107.93534 -1103.1168,109.06534 C -1103.0148,109.06534 -1100.4728,109.10534 -1100.4728,109.10534 L -1098.2698,109.07034 L -1097.8018,109.06534 C -1097.2238,107.62234 -1096.7948,106.52534 -1096.6078,105.98234 L -1096.5738,105.90234 H -1092.8718 L -1098.8268,119.32934 Z M -1091.8248,115.85734 C -1091.8248,113.49834 -1089.4618,112.54934 -1087.3698,111.68134 C -1085.7398,111.03234 -1084.0368,110.34934 -1084.0368,109.22434 C -1084.0368,108.88434 -1084.1038,108.59834 -1084.2938,108.39734 C -1084.6858,107.93534 -1085.4788,107.74134 -1086.7378,107.81134 C -1087.9838,107.86134 -1089.3898,108.25434 -1090.9718,108.98334 L -1091.5918,109.28134 V 106.35634 L -1091.1698,106.24834 L -1090.9238,106.20634 C -1090.1428,106.01234 -1088.6338,105.65734 -1087.1358,105.65734 C -1083.1918,105.65734 -1080.8388,107.23034 -1080.8388,109.83034 C -1080.8388,112.27234 -1083.2688,113.22134 -1085.4148,114.07734 C -1086.9958,114.71834 -1088.6328,115.35334 -1088.6328,116.40034 C -1088.6328,116.70234 -1088.6328,117.58334 -1086.5898,117.58334 C -1085.0848,117.58334 -1083.6218,116.97034 -1082.7908,116.65334 L -1082.0328,116.33534 L -1082.0378,116.83934 V 119.27134 L -1082.7908,119.40734 C -1083.5568,119.56234 -1084.8348,119.81734 -1086.1508,119.81734 C -1089.5528,119.81734 -1091.8238,118.21034 -1091.8238,115.85734"
       id="path223" />
  </g>
</svg>
